<?xml version="1.0" encoding="UTF-8"?>
<!DOCTYPE svg PUBLIC "-//W3C//DTD SVG 1.1//EN" "http://www.w3.org/Graphics/SVG/1.1/DTD/svg11.dtd">
<svg xmlns="http://www.w3.org/2000/svg" version="1.1" width="512px" height="512px" style="shape-rendering:geometricPrecision; text-rendering:geometricPrecision; image-rendering:optimizeQuality; fill-rule:evenodd; clip-rule:evenodd" xmlns:xlink="http://www.w3.org/1999/xlink">
<g><path style="opacity:0.978" fill="#000000" d="M 249.5,41.5 C 271.482,40.2349 286.982,49.5682 296,69.5C 297.749,76.3913 298.916,83.3913 299.5,90.5C 362.636,113.087 397.802,157.754 405,224.5C 405.333,270.5 405.667,316.5 406,362.5C 419.667,376.167 433.333,389.833 447,403.5C 447.5,411.159 447.666,418.826 447.5,426.5C 319.5,426.5 191.5,426.5 63.5,426.5C 63.3336,418.826 63.5003,411.159 64,403.5C 77.6667,389.833 91.3333,376.167 105,362.5C 105.333,316.5 105.667,270.5 106,224.5C 113.198,157.754 148.364,113.087 211.5,90.5C 211.566,64.1285 224.233,47.7952 249.5,41.5 Z M 241.5,128.5 C 286.263,124.968 321.096,141.635 346,178.5C 353.995,192.152 358.995,206.819 361,222.5C 361.5,276.166 361.667,329.832 361.5,383.5C 290.833,383.5 220.167,383.5 149.5,383.5C 149.333,329.832 149.5,276.166 150,222.5C 159.142,170.194 189.642,138.86 241.5,128.5 Z"/></g>
<g><path style="opacity:0.967" fill="#000000" d="M 88.5,67.5 C 89.552,67.3505 90.552,67.5172 91.5,68C 101,77.5 110.5,87 120,96.5C 120.667,97.5 120.667,98.5 120,99.5C 83.7766,136.638 65.11,181.305 64,233.5C 49.5785,234.49 35.0785,234.824 20.5,234.5C 21.3187,169.662 43.9854,113.995 88.5,67.5 Z"/></g>
<g><path style="opacity:0.967" fill="#000000" d="M 419.5,67.5 C 422.614,68.0913 425.114,69.758 427,72.5C 468.84,118.152 490.007,172.152 490.5,234.5C 475.921,234.824 461.421,234.49 447,233.5C 445.679,180.831 426.846,135.665 390.5,98C 399.993,87.6735 409.66,77.5069 419.5,67.5 Z"/></g>
<g><path style="opacity:0.972" fill="#000000" d="M 212.5,447.5 C 241.167,447.5 269.833,447.5 298.5,447.5C 296.504,474.162 282.171,488.496 255.5,490.5C 228.829,488.496 214.496,474.162 212.5,447.5 Z"/></g>
</svg>
