<?xml version="1.0" encoding="UTF-8"?>
<!DOCTYPE svg PUBLIC "-//W3C//DTD SVG 1.1//EN" "http://www.w3.org/Graphics/SVG/1.1/DTD/svg11.dtd">
<svg xmlns="http://www.w3.org/2000/svg" version="1.1" width="512px" height="512px" style="shape-rendering:geometricPrecision; text-rendering:geometricPrecision; image-rendering:optimizeQuality; fill-rule:evenodd; clip-rule:evenodd" xmlns:xlink="http://www.w3.org/1999/xlink">
<g><path style="opacity:0.992" fill="#000000" d="M 100.5,41.5 C 203.834,41.3333 307.167,41.5 410.5,42C 430.02,45.1874 442.186,56.3541 447,75.5C 447.667,195.5 447.667,315.5 447,435.5C 442.186,454.646 430.02,465.813 410.5,469C 307.167,469.667 203.833,469.667 100.5,469C 80.9803,465.813 68.8136,454.646 64,435.5C 63.3333,315.5 63.3333,195.5 64,75.5C 68.9875,56.3424 81.1542,45.0091 100.5,41.5 Z M 249.5,106.5 C 286.072,106.524 308.905,124.191 318,159.5C 321.221,193.232 307.388,216.732 276.5,230C 237.881,239.274 210.715,225.774 195,189.5C 186.967,153.404 199.467,127.237 232.5,111C 238.175,109 243.842,107.5 249.5,106.5 Z M 238.5,272.5 C 286.83,268.438 327.997,283.438 362,317.5C 378.649,336.282 385.815,358.282 383.5,383.5C 298.167,383.5 212.833,383.5 127.5,383.5C 125.185,358.282 132.351,336.282 149,317.5C 173.672,292.247 203.506,277.247 238.5,272.5 Z"/></g>
</svg>
