<?xml version="1.0" encoding="UTF-8"?>
<!DOCTYPE svg PUBLIC "-//W3C//DTD SVG 1.1//EN" "http://www.w3.org/Graphics/SVG/1.1/DTD/svg11.dtd">
<svg xmlns="http://www.w3.org/2000/svg" version="1.1" width="512px" height="512px" style="shape-rendering:geometricPrecision; text-rendering:geometricPrecision; image-rendering:optimizeQuality; fill-rule:evenodd; clip-rule:evenodd" xmlns:xlink="http://www.w3.org/1999/xlink">
<g><path style="opacity:0.986" fill="#2f302f" d="M 111.5,-0.5 C 183.5,-0.5 255.5,-0.5 327.5,-0.5C 337.838,2.33252 347.504,6.83252 356.5,13C 388.333,44.8333 420.167,76.6667 452,108.5C 459.373,117.943 464.04,128.61 466,140.5C 466.984,242.859 466.651,345.192 465,447.5C 456.102,482.233 434.269,503.566 399.5,511.5C 303.5,511.5 207.5,511.5 111.5,511.5C 73.743,502.573 51.5763,478.906 45,440.5C 44.3333,317.167 44.3333,193.833 45,70.5C 51.5763,32.0941 73.743,8.42746 111.5,-0.5 Z M 125.5,39.5 C 189.501,39.3333 253.501,39.5 317.5,40C 307.781,121.11 343.448,155.277 424.5,142.5C 425.66,240.805 425.826,339.139 425,437.5C 419.844,457.981 406.678,469.148 385.5,471C 298.833,471.667 212.167,471.667 125.5,471C 104.322,469.148 91.1558,457.981 86,437.5C 85.3333,316.167 85.3333,194.833 86,73.5C 91.3308,52.999 104.497,41.6657 125.5,39.5 Z"/></g>
<g><path style="opacity:0.979" fill="#2f302f" d="M 143.5,146.5 C 188.168,146.333 232.835,146.5 277.5,147C 294.456,153.503 299.623,165.337 293,182.5C 288.992,188.425 283.492,192.258 276.5,194C 232.833,194.667 189.167,194.667 145.5,194C 128.843,189.19 122.677,178.357 127,161.5C 130.19,153.843 135.69,148.843 143.5,146.5 Z"/></g>
<g><path style="opacity:0.98" fill="#2f302f" d="M 143.5,248.5 C 218.167,248.333 292.834,248.5 367.5,249C 384.645,256.14 389.479,268.307 382,285.5C 377.861,291.152 372.361,294.652 365.5,296C 292.167,296.667 218.833,296.667 145.5,296C 128.843,291.19 122.677,280.357 127,263.5C 130.19,255.843 135.69,250.843 143.5,248.5 Z"/></g>
<g><path style="opacity:0.98" fill="#2f302f" d="M 143.5,350.5 C 218.167,350.333 292.834,350.5 367.5,351C 384.645,358.14 389.479,370.307 382,387.5C 377.861,393.152 372.361,396.652 365.5,398C 292.167,398.667 218.833,398.667 145.5,398C 128.843,393.19 122.677,382.357 127,365.5C 130.19,357.843 135.69,352.843 143.5,350.5 Z"/></g>
</svg>
