<?xml version="1.0" encoding="UTF-8"?>
<!DOCTYPE svg PUBLIC "-//W3C//DTD SVG 1.1//EN" "http://www.w3.org/Graphics/SVG/1.1/DTD/svg11.dtd">
<svg xmlns="http://www.w3.org/2000/svg" version="1.1" width="256px" height="256px" style="shape-rendering:geometricPrecision; text-rendering:geometricPrecision; image-rendering:optimizeQuality; fill-rule:evenodd; clip-rule:evenodd" xmlns:xlink="http://www.w3.org/1999/xlink">
<g><path style="opacity:0.888" fill="#000000" d="M 39.5,0.5 C 98.1676,0.333339 156.834,0.500005 215.5,1C 223.114,2.9471 227.614,7.78043 229,15.5C 229.667,89.5 229.667,163.5 229,237.5C 227.4,247.432 221.567,252.932 211.5,254C 208.5,254.667 205.5,254.667 202.5,254C 192.707,249.94 183.707,244.606 175.5,238C 171.509,235.754 167.343,233.921 163,232.5C 159.945,233.611 157.112,235.111 154.5,237C 136.54,259.517 117.873,260.184 98.5,239C 95.1631,236.329 91.4964,234.163 87.5,232.5C 84.5,234 81.5,235.5 78.5,237C 70.4146,244.758 61.0813,250.425 50.5,254C 37.9768,254.789 29.8101,249.289 26,237.5C 25.3333,163.5 25.3333,89.5 26,15.5C 27.5733,7.76469 32.0733,2.76469 39.5,0.5 Z M 41.5,9.5 C 98.501,9.33334 155.501,9.50001 212.5,10C 216.742,11.2449 219.242,14.0782 220,18.5C 220.667,90.8333 220.667,163.167 220,235.5C 217.625,243.108 212.458,246.275 204.5,245C 195.383,240.881 187.049,235.548 179.5,229C 170.79,222.94 161.79,222.273 152.5,227C 147.533,230.966 142.866,235.299 138.5,240C 134.762,242.785 130.596,244.618 126,245.5C 121.9,244.701 118.066,243.201 114.5,241C 109.5,236.667 104.5,232.333 99.5,228C 95.8085,225.653 91.8085,224.153 87.5,223.5C 83.1915,224.153 79.1915,225.653 75.5,228C 66.8428,235.243 57.3428,241.077 47,245.5C 40.7725,244.734 36.7725,241.401 35,235.5C 34.3333,163.167 34.3333,90.8333 35,18.5C 35.8727,14.4754 38.0393,11.4754 41.5,9.5 Z"/></g>
<g><path style="opacity:0.809" fill="#000000" d="M 65.5,60.5 C 108.501,60.3333 151.501,60.5 194.5,61C 199.833,64 199.833,67 194.5,70C 151.5,70.6667 108.5,70.6667 65.5,70C 61.7054,68.9365 60.5388,66.4365 62,62.5C 63.3024,61.9152 64.469,61.2485 65.5,60.5 Z"/></g>
<g><path style="opacity:0.894" fill="#000000" d="M 64.5,98.5 C 106.835,98.3333 149.168,98.5 191.5,99C 193.792,101.245 194.125,103.745 192.5,106.5C 150.529,107.65 108.529,107.817 66.5,107C 62.0249,105.073 61.3582,102.24 64.5,98.5 Z"/></g>
<g><path style="opacity:0.895" fill="#000000" d="M 64.5,135.5 C 106.501,135.333 148.501,135.5 190.5,136C 193.145,138.083 193.811,140.583 192.5,143.5C 150.529,144.65 108.529,144.817 66.5,144C 62.0249,142.073 61.3582,139.24 64.5,135.5 Z"/></g>
<g><path style="opacity:0.884" fill="#000000" d="M 66.5,172.5 C 90.169,172.333 113.836,172.5 137.5,173C 140.399,176.156 140.065,178.822 136.5,181C 113.5,181.667 90.5,181.667 67.5,181C 63.8683,178.653 63.535,175.82 66.5,172.5 Z"/></g>
</svg>
