<?xml version="1.0" encoding="UTF-8"?>
<!DOCTYPE svg PUBLIC "-//W3C//DTD SVG 1.1//EN" "http://www.w3.org/Graphics/SVG/1.1/DTD/svg11.dtd">
<svg xmlns="http://www.w3.org/2000/svg" version="1.1" width="512px" height="512px" style="shape-rendering:geometricPrecision; text-rendering:geometricPrecision; image-rendering:optimizeQuality; fill-rule:evenodd; clip-rule:evenodd" xmlns:xlink="http://www.w3.org/1999/xlink">
<g><path style="opacity:0.966" fill="#000000" d="M 176.5,-0.5 C 264.833,-0.5 353.167,-0.5 441.5,-0.5C 443.807,0.977392 445.64,2.97739 447,5.5C 447.667,172.167 447.667,338.833 447,505.5C 445.64,508.023 443.807,510.023 441.5,511.5C 317.5,511.5 193.5,511.5 69.5,511.5C 67.193,510.023 65.3597,508.023 64,505.5C 63.3333,378.5 63.3333,251.5 64,124.5C 95,89.5 126,54.5 157,19.5C 163.032,12.3024 169.532,5.63573 176.5,-0.5 Z M 191.5,21.5 C 269.5,21.5 347.5,21.5 425.5,21.5C 425.5,177.5 425.5,333.5 425.5,489.5C 312.167,489.5 198.833,489.5 85.5,489.5C 85.5,376.167 85.5,262.833 85.5,149.5C 118.168,149.667 150.835,149.5 183.5,149C 186.196,148.31 188.363,146.81 190,144.5C 191.489,103.585 191.989,62.5854 191.5,21.5 Z M 168.5,40.5 C 169.498,69.3285 169.831,98.3285 169.5,127.5C 143.498,127.667 117.498,127.5 91.5,127C 117.003,97.998 142.67,69.1647 168.5,40.5 Z"/></g>
</svg>
