<?xml version="1.0" encoding="UTF-8"?>
<!DOCTYPE svg PUBLIC "-//W3C//DTD SVG 1.1//EN" "http://www.w3.org/Graphics/SVG/1.1/DTD/svg11.dtd">
<svg xmlns="http://www.w3.org/2000/svg" version="1.1" width="512px" height="512px" style="shape-rendering:geometricPrecision; text-rendering:geometricPrecision; image-rendering:optimizeQuality; fill-rule:evenodd; clip-rule:evenodd" xmlns:xlink="http://www.w3.org/1999/xlink">
<g><path style="opacity:0.99" fill="#000000" d="M 84.5,-0.5 C 198.5,-0.5 312.5,-0.5 426.5,-0.5C 426.5,13.8333 426.5,28.1667 426.5,42.5C 312.5,42.5 198.5,42.5 84.5,42.5C 84.5,28.1667 84.5,13.8333 84.5,-0.5 Z"/></g>
<g><path style="opacity:0.99" fill="#000000" d="M 77.5,84.5 C 196.167,84.3333 314.834,84.5 433.5,85C 453.105,89.6048 464.938,101.771 469,121.5C 469.667,210.833 469.667,300.167 469,389.5C 464.938,409.229 453.105,421.395 433.5,426C 314.833,426.667 196.167,426.667 77.5,426C 57.8953,421.395 46.062,409.229 42,389.5C 41.3333,300.167 41.3333,210.833 42,121.5C 46.2451,101.757 58.0784,89.4238 77.5,84.5 Z M 246.5,144.5 C 275.384,142.18 293.884,154.847 302,182.5C 304.803,211.405 292.303,229.905 264.5,238C 235.595,240.803 217.095,228.303 209,200.5C 206.315,171.51 218.815,152.844 246.5,144.5 Z M 242.5,277.5 C 271.218,276.344 298.884,281.177 325.5,292C 337.157,297.076 347.324,304.243 356,313.5C 358.434,316.795 360.101,320.462 361,324.5C 361.5,336.829 361.667,349.162 361.5,361.5C 290.833,361.5 220.167,361.5 149.5,361.5C 149.333,349.162 149.5,336.829 150,324.5C 154.609,312.886 162.443,304.053 173.5,298C 195.369,286.954 218.369,280.121 242.5,277.5 Z"/></g>
<g><path style="opacity:0.99" fill="#000000" d="M 426.5,511.5 C 312.5,511.5 198.5,511.5 84.5,511.5C 84.5,497.167 84.5,482.833 84.5,468.5C 198.5,468.5 312.5,468.5 426.5,468.5C 426.5,482.833 426.5,497.167 426.5,511.5 Z"/></g>
</svg>
