<?xml version="1.0" encoding="UTF-8"?>
<!DOCTYPE svg PUBLIC "-//W3C//DTD SVG 1.1//EN" "http://www.w3.org/Graphics/SVG/1.1/DTD/svg11.dtd">
<svg xmlns="http://www.w3.org/2000/svg" version="1.1" width="58px" height="58px" style="shape-rendering:geometricPrecision; text-rendering:geometricPrecision; image-rendering:optimizeQuality; fill-rule:evenodd; clip-rule:evenodd" xmlns:xlink="http://www.w3.org/1999/xlink">
<g><path style="opacity:0.796" fill="#000000" d="M 20.5,-0.5 C 25.8333,-0.5 31.1667,-0.5 36.5,-0.5C 39.5518,1.05591 41.2185,3.55591 41.5,7C 39.4486,12.358 37.4486,17.858 35.5,23.5C 38.9588,26.7366 42.9588,29.2366 47.5,31C 48.7014,31.9025 49.5348,33.0692 50,34.5C 50.6667,38.1667 50.6667,41.8333 50,45.5C 48.2111,47.229 46.0444,47.8957 43.5,47.5C 43.788,44.6034 44.4546,41.7701 45.5,39C 45.1667,37.8333 44.8333,36.6667 44.5,35.5C 40.744,32.854 36.744,31.0206 32.5,30C 31.8333,30.6667 31.1667,31.3333 30.5,32C 41.5081,35.8577 44.3414,43.0244 39,53.5C 37.1879,54.9771 35.3545,56.3104 33.5,57.5C 30.1667,57.5 26.8333,57.5 23.5,57.5C 16.7017,53.892 14.2017,48.2254 16,40.5C 18.4039,35.7665 22.2372,32.9332 27.5,32C 26.0337,31.3645 24.7003,30.5312 23.5,29.5C 19.9934,31.754 16.3267,33.754 12.5,35.5C 12.1667,36.6667 11.8333,37.8333 11.5,39C 12.5454,41.7701 13.212,44.6034 13.5,47.5C 10.9556,47.8957 8.7889,47.229 7,45.5C 6.33333,41.8333 6.33333,38.1667 7,34.5C 7.46524,33.0692 8.29857,31.9025 9.5,31C 14.0412,29.2366 18.0412,26.7366 21.5,23.5C 18.8099,18.2323 16.8099,12.7323 15.5,7C 15.7815,3.55591 17.4482,1.05591 20.5,-0.5 Z M 21.5,4.5 C 26.1785,4.33418 30.8452,4.50085 35.5,5C 35.9574,5.41395 36.2907,5.91395 36.5,6.5C 31.1667,7.83333 25.8333,7.83333 20.5,6.5C 20.8627,5.81654 21.1961,5.14987 21.5,4.5 Z M 22.5,11.5 C 26.1667,11.5 29.8333,11.5 33.5,11.5C 34.5817,16.0927 32.915,19.0927 28.5,20.5C 24.2522,19.0058 22.2522,16.0058 22.5,11.5 Z M 25.5,37.5 C 27.5848,41.8559 26.2514,44.8559 21.5,46.5C 20.351,42.46 21.6844,39.46 25.5,37.5 Z M 30.5,37.5 C 34.8952,38.9601 36.7285,41.9601 36,46.5C 34.3333,45.5 32.6667,44.5 31,43.5C 30.5045,41.5273 30.3379,39.5273 30.5,37.5 Z M 27.5,48.5 C 29.7834,48.6079 31.7834,49.4412 33.5,51C 30.6513,52.7273 27.6513,52.894 24.5,51.5C 25.3398,50.265 26.3398,49.265 27.5,48.5 Z"/></g>
</svg>
