<?xml version="1.0" encoding="UTF-8"?>
<!DOCTYPE svg PUBLIC "-//W3C//DTD SVG 1.1//EN" "http://www.w3.org/Graphics/SVG/1.1/DTD/svg11.dtd">
<svg xmlns="http://www.w3.org/2000/svg" version="1.1" width="512px" height="512px" style="shape-rendering:geometricPrecision; text-rendering:geometricPrecision; image-rendering:optimizeQuality; fill-rule:evenodd; clip-rule:evenodd" xmlns:xlink="http://www.w3.org/1999/xlink">
<g><path style="opacity:0.991" fill="#000000" d="M 236.5,-0.5 C 249.167,-0.5 261.833,-0.5 274.5,-0.5C 343.869,9.70843 393.036,46.7084 422,110.5C 439.233,152.064 439.566,193.73 423,235.5C 407.577,274.013 389.243,311.013 368,346.5C 333.352,403.294 296.186,458.294 256.5,511.5C 255.833,511.5 255.167,511.5 254.5,511.5C 204.949,446.107 160.116,377.44 120,305.5C 103.148,274.937 89.8144,242.937 80,209.5C 68.6433,135.403 92.8099,75.9031 152.5,31C 178.077,13.8656 206.077,3.36563 236.5,-0.5 Z M 245.5,128.5 C 276.309,125.803 296.142,139.136 305,168.5C 308.58,198.512 296.08,218.346 267.5,228C 236.207,232.276 215.707,219.443 206,189.5C 202.603,158.267 215.77,137.933 245.5,128.5 Z"/></g>
</svg>
