<?xml version="1.0" encoding="UTF-8"?>
<!DOCTYPE svg PUBLIC "-//W3C//DTD SVG 1.1//EN" "http://www.w3.org/Graphics/SVG/1.1/DTD/svg11.dtd">
<svg xmlns="http://www.w3.org/2000/svg" version="1.1" width="512px" height="512px" style="shape-rendering:geometricPrecision; text-rendering:geometricPrecision; image-rendering:optimizeQuality; fill-rule:evenodd; clip-rule:evenodd" xmlns:xlink="http://www.w3.org/1999/xlink">
<g><path style="opacity:0.99" fill="#000000" d="M 457.5,-0.5 C 461.5,-0.5 465.5,-0.5 469.5,-0.5C 473.811,1.6467 476.978,4.98004 479,9.5C 479.667,173.5 479.667,337.5 479,501.5C 476.978,506.02 473.811,509.353 469.5,511.5C 433.5,511.5 397.5,511.5 361.5,511.5C 357.189,509.353 354.022,506.02 352,501.5C 351.5,483.503 351.333,465.503 351.5,447.5C 340.833,447.5 330.167,447.5 319.5,447.5C 319.667,465.503 319.5,483.503 319,501.5C 316.978,506.02 313.811,509.353 309.5,511.5C 209.5,511.5 109.5,511.5 9.5,511.5C 5.16667,509.167 1.83333,505.833 -0.5,501.5C -0.5,438.833 -0.5,376.167 -0.5,313.5C 1.6467,309.189 4.98004,306.022 9.5,304C 69.8703,283.932 130.204,263.765 190.5,243.5C 191.333,208.171 191.833,172.838 192,137.5C 193.061,134.438 194.894,131.938 197.5,130C 284.383,86.7255 371.049,43.2255 457.5,-0.5 Z M 445.5,42.5 C 447.498,187.83 448.165,333.496 447.5,479.5C 426.167,479.5 404.833,479.5 383.5,479.5C 383.667,461.497 383.5,443.497 383,425.5C 381.167,421 378,417.833 373.5,416C 348.167,415.333 322.833,415.333 297.5,416C 293,417.833 289.833,421 288,425.5C 287.5,443.497 287.333,461.497 287.5,479.5C 266.167,479.5 244.833,479.5 223.5,479.5C 223.167,370.831 223.5,262.165 224.5,153.5C 298.383,116.725 372.049,79.7255 445.5,42.5 Z M 189.5,278.5 C 191.497,345.158 192.163,412.158 191.5,479.5C 138.167,479.5 84.8333,479.5 31.5,479.5C 31.1667,430.162 31.5001,380.829 32.5,331.5C 85.0051,313.999 137.338,296.332 189.5,278.5 Z"/></g>
<g><path style="opacity:1" fill="#000000" d="M 383.5,95.5 C 394.167,95.5 404.833,95.5 415.5,95.5C 415.5,106.167 415.5,116.833 415.5,127.5C 404.833,127.5 394.167,127.5 383.5,127.5C 383.5,116.833 383.5,106.167 383.5,95.5 Z"/></g>
<g><path style="opacity:1" fill="#000000" d="M 255.5,159.5 C 266.167,159.5 276.833,159.5 287.5,159.5C 287.5,170.167 287.5,180.833 287.5,191.5C 276.833,191.5 266.167,191.5 255.5,191.5C 255.5,180.833 255.5,170.167 255.5,159.5 Z"/></g>
<g><path style="opacity:1" fill="#000000" d="M 319.5,159.5 C 330.167,159.5 340.833,159.5 351.5,159.5C 351.5,170.167 351.5,180.833 351.5,191.5C 340.833,191.5 330.167,191.5 319.5,191.5C 319.5,180.833 319.5,170.167 319.5,159.5 Z"/></g>
<g><path style="opacity:1" fill="#000000" d="M 383.5,159.5 C 394.167,159.5 404.833,159.5 415.5,159.5C 415.5,170.167 415.5,180.833 415.5,191.5C 404.833,191.5 394.167,191.5 383.5,191.5C 383.5,180.833 383.5,170.167 383.5,159.5 Z"/></g>
<g><path style="opacity:1" fill="#000000" d="M 255.5,223.5 C 266.167,223.5 276.833,223.5 287.5,223.5C 287.5,234.167 287.5,244.833 287.5,255.5C 276.833,255.5 266.167,255.5 255.5,255.5C 255.5,244.833 255.5,234.167 255.5,223.5 Z"/></g>
<g><path style="opacity:1" fill="#000000" d="M 319.5,223.5 C 330.167,223.5 340.833,223.5 351.5,223.5C 351.5,234.167 351.5,244.833 351.5,255.5C 340.833,255.5 330.167,255.5 319.5,255.5C 319.5,244.833 319.5,234.167 319.5,223.5 Z"/></g>
<g><path style="opacity:1" fill="#000000" d="M 383.5,223.5 C 394.167,223.5 404.833,223.5 415.5,223.5C 415.5,234.167 415.5,244.833 415.5,255.5C 404.833,255.5 394.167,255.5 383.5,255.5C 383.5,244.833 383.5,234.167 383.5,223.5 Z"/></g>
<g><path style="opacity:1" fill="#000000" d="M 255.5,287.5 C 266.167,287.5 276.833,287.5 287.5,287.5C 287.5,298.167 287.5,308.833 287.5,319.5C 276.833,319.5 266.167,319.5 255.5,319.5C 255.5,308.833 255.5,298.167 255.5,287.5 Z"/></g>
<g><path style="opacity:1" fill="#000000" d="M 319.5,287.5 C 330.167,287.5 340.833,287.5 351.5,287.5C 351.5,298.167 351.5,308.833 351.5,319.5C 340.833,319.5 330.167,319.5 319.5,319.5C 319.5,308.833 319.5,298.167 319.5,287.5 Z"/></g>
<g><path style="opacity:1" fill="#000000" d="M 383.5,287.5 C 394.167,287.5 404.833,287.5 415.5,287.5C 415.5,298.167 415.5,308.833 415.5,319.5C 404.833,319.5 394.167,319.5 383.5,319.5C 383.5,308.833 383.5,298.167 383.5,287.5 Z"/></g>
<g><path style="opacity:1" fill="#000000" d="M 63.5,351.5 C 74.1667,351.5 84.8333,351.5 95.5,351.5C 95.5,362.167 95.5,372.833 95.5,383.5C 84.8333,383.5 74.1667,383.5 63.5,383.5C 63.5,372.833 63.5,362.167 63.5,351.5 Z"/></g>
<g><path style="opacity:1" fill="#000000" d="M 127.5,351.5 C 138.167,351.5 148.833,351.5 159.5,351.5C 159.5,362.167 159.5,372.833 159.5,383.5C 148.833,383.5 138.167,383.5 127.5,383.5C 127.5,372.833 127.5,362.167 127.5,351.5 Z"/></g>
<g><path style="opacity:1" fill="#000000" d="M 255.5,351.5 C 266.167,351.5 276.833,351.5 287.5,351.5C 287.5,362.167 287.5,372.833 287.5,383.5C 276.833,383.5 266.167,383.5 255.5,383.5C 255.5,372.833 255.5,362.167 255.5,351.5 Z"/></g>
<g><path style="opacity:1" fill="#000000" d="M 319.5,351.5 C 330.167,351.5 340.833,351.5 351.5,351.5C 351.5,362.167 351.5,372.833 351.5,383.5C 340.833,383.5 330.167,383.5 319.5,383.5C 319.5,372.833 319.5,362.167 319.5,351.5 Z"/></g>
<g><path style="opacity:1" fill="#000000" d="M 383.5,351.5 C 394.167,351.5 404.833,351.5 415.5,351.5C 415.5,362.167 415.5,372.833 415.5,383.5C 404.833,383.5 394.167,383.5 383.5,383.5C 383.5,372.833 383.5,362.167 383.5,351.5 Z"/></g>
<g><path style="opacity:1" fill="#000000" d="M 63.5,415.5 C 74.1667,415.5 84.8333,415.5 95.5,415.5C 95.5,426.167 95.5,436.833 95.5,447.5C 84.8333,447.5 74.1667,447.5 63.5,447.5C 63.5,436.833 63.5,426.167 63.5,415.5 Z"/></g>
<g><path style="opacity:1" fill="#000000" d="M 127.5,415.5 C 138.167,415.5 148.833,415.5 159.5,415.5C 159.5,426.167 159.5,436.833 159.5,447.5C 148.833,447.5 138.167,447.5 127.5,447.5C 127.5,436.833 127.5,426.167 127.5,415.5 Z"/></g>
</svg>
