<?xml version="1.0" encoding="UTF-8"?>
<!DOCTYPE svg PUBLIC "-//W3C//DTD SVG 1.1//EN" "http://www.w3.org/Graphics/SVG/1.1/DTD/svg11.dtd">
<svg xmlns="http://www.w3.org/2000/svg" version="1.1" width="512px" height="512px" style="shape-rendering:geometricPrecision; text-rendering:geometricPrecision; image-rendering:optimizeQuality; fill-rule:evenodd; clip-rule:evenodd" xmlns:xlink="http://www.w3.org/1999/xlink">
<g><path style="opacity:0.989" fill="#000000" d="M 245.5,27.5 C 294.424,25.8673 330.257,46.534 353,89.5C 366.718,121.755 365.385,153.422 349,184.5C 325.925,229.882 297.758,271.715 264.5,310C 258.521,313.208 252.521,313.208 246.5,310C 213.242,271.715 185.075,229.882 162,184.5C 138.449,134.933 146.282,91.0998 185.5,53C 203.077,38.7094 223.077,30.2094 245.5,27.5 Z"/></g>
<g><path style="opacity:0.99" fill="#000000" d="M 511.5,156.5 C 511.5,241.167 511.5,325.833 511.5,410.5C 508.745,416.424 504.411,420.924 498.5,424C 455.5,441.167 412.5,458.333 369.5,475.5C 368.333,385.502 368.167,295.502 369,205.5C 372.264,198.542 375.43,191.542 378.5,184.5C 413.704,170.042 449.037,155.876 484.5,142C 497.594,139.616 506.594,144.449 511.5,156.5 Z"/></g>
<g><path style="opacity:0.99" fill="#000000" d="M -0.5,461.5 C -0.5,376.833 -0.5,292.167 -0.5,207.5C 2.62169,200.881 7.62169,196.047 14.5,193C 50.4199,178.537 86.4199,164.37 122.5,150.5C 126.162,169.827 132.662,188.161 142,205.5C 142.5,280.499 142.667,355.499 142.5,430.5C 103.753,445.37 65.0867,460.537 26.5,476C 13.4064,478.384 4.40637,473.551 -0.5,461.5 Z"/></g>
<g><path style="opacity:0.979" fill="#000000" d="M 169.5,254.5 C 182.958,272.698 196.458,291.031 210,309.5C 215.125,316.293 220.625,322.793 226.5,329C 245.833,343 265.167,343 284.5,329C 304.504,305.151 323.171,280.318 340.5,254.5C 341.5,328.497 341.833,402.497 341.5,476.5C 284.178,460.67 227.012,444.337 170,427.5C 169.5,369.834 169.333,312.168 169.5,254.5 Z"/></g>
</svg>
