<?xml version="1.0" encoding="UTF-8"?>
<!DOCTYPE svg PUBLIC "-//W3C//DTD SVG 1.1//EN" "http://www.w3.org/Graphics/SVG/1.1/DTD/svg11.dtd">
<svg xmlns="http://www.w3.org/2000/svg" version="1.1" width="512px" height="512px" style="shape-rendering:geometricPrecision; text-rendering:geometricPrecision; image-rendering:optimizeQuality; fill-rule:evenodd; clip-rule:evenodd" xmlns:xlink="http://www.w3.org/1999/xlink">
<g><path style="opacity:0.979" fill="#000000" d="M 422.5,4.5 C 438.707,2.71762 453.373,6.55096 466.5,16C 476,25.5 485.5,35 495,44.5C 510.332,67.8207 510.332,91.154 495,114.5C 483.319,126.348 471.486,138.014 459.5,149.5C 426.5,117.167 393.833,84.5 361.5,51.5C 372.986,39.514 384.652,27.6807 396.5,16C 404.449,10.3041 413.116,6.47078 422.5,4.5 Z"/></g>
<g><path style="opacity:0.993" fill="#000000" d="M 365.5,511.5 C 270.833,511.5 176.167,511.5 81.5,511.5C 36.5,501.833 9.16667,474.5 -0.5,429.5C -0.5,334.833 -0.5,240.167 -0.5,145.5C 8.98693,100.513 36.3203,73.3467 81.5,64C 120.833,63.3333 160.167,63.3333 199.5,64C 218.438,70.3554 226.272,83.522 223,103.5C 219.833,116 212,123.833 199.5,127C 162.141,127.051 124.807,127.718 87.5,129C 72.816,133.86 64.9826,144.027 64,159.5C 63.3333,244.833 63.3333,330.167 64,415.5C 65.8333,434.667 76.3333,445.167 95.5,447C 180.833,447.667 266.167,447.667 351.5,447C 366.973,446.017 377.14,438.184 382,423.5C 382.974,384.813 383.974,346.146 385,307.5C 393.948,289.783 408.115,283.617 427.5,289C 437.839,293.18 444.339,300.68 447,311.5C 447.667,350.833 447.667,390.167 447,429.5C 437.653,474.68 410.487,502.013 365.5,511.5 Z"/></g>
<g><path style="opacity:0.989" fill="#000000" d="M 338.5,73.5 C 371.749,105.248 404.583,137.582 437,170.5C 437.667,171.167 437.667,171.833 437,172.5C 379.365,230.135 321.865,287.635 264.5,345C 260.326,347.588 255.993,349.921 251.5,352C 218.453,363.238 185.286,374.071 152,384.5C 133.331,381.831 125.331,371.165 128,352.5C 138.333,321.5 148.667,290.5 159,259.5C 160.667,256.167 162.333,252.833 164,249.5C 222.007,190.66 280.174,131.993 338.5,73.5 Z"/></g>
</svg>
