<?xml version="1.0" encoding="UTF-8"?>
<!DOCTYPE svg PUBLIC "-//W3C//DTD SVG 1.1//EN" "http://www.w3.org/Graphics/SVG/1.1/DTD/svg11.dtd">
<svg xmlns="http://www.w3.org/2000/svg" version="1.1" width="512px" height="512px" style="shape-rendering:geometricPrecision; text-rendering:geometricPrecision; image-rendering:optimizeQuality; fill-rule:evenodd; clip-rule:evenodd" xmlns:xlink="http://www.w3.org/1999/xlink">
<g><path style="opacity:0.995" fill="#000000" d="M 83.5,31.5 C 198.167,31.3333 312.834,31.5 427.5,32C 455.784,38.6171 472.951,56.1171 479,84.5C 479.667,198.5 479.667,312.5 479,426.5C 472.833,455.333 455.333,472.833 426.5,479C 312.5,479.667 198.5,479.667 84.5,479C 56.1171,472.951 38.6171,455.784 32,427.5C 31.3333,312.833 31.3333,198.167 32,83.5C 38.6811,55.6527 55.8478,38.3193 83.5,31.5 Z M 328.5,127.5 C 338.591,128.213 347.591,131.713 355.5,138C 362.698,144.864 369.532,152.03 376,159.5C 384.277,173.613 384.61,187.946 377,202.5C 368.364,212.137 359.364,221.47 350,230.5C 326.653,207.32 303.486,183.986 280.5,160.5C 288.683,151.484 297.349,142.984 306.5,135C 313.31,130.64 320.643,128.14 328.5,127.5 Z M 255.5,184.5 C 279.582,207.081 303.249,230.247 326.5,254C 289.806,291.028 252.806,327.695 215.5,364C 193.407,370.774 171.074,376.774 148.5,382C 133.505,383.337 127.005,376.504 129,361.5C 134,341.5 139,321.5 144,301.5C 145.333,298.833 146.667,296.167 148,293.5C 183.674,256.993 219.507,220.66 255.5,184.5 Z"/></g>
</svg>
