<?xml version="1.0" encoding="UTF-8"?>
<!DOCTYPE svg PUBLIC "-//W3C//DTD SVG 1.1//EN" "http://www.w3.org/Graphics/SVG/1.1/DTD/svg11.dtd">
<svg xmlns="http://www.w3.org/2000/svg" version="1.1" width="512px" height="512px" style="shape-rendering:geometricPrecision; text-rendering:geometricPrecision; image-rendering:optimizeQuality; fill-rule:evenodd; clip-rule:evenodd" xmlns:xlink="http://www.w3.org/1999/xlink">
<g><path style="opacity:0.982" fill="#000000" d="M 420.5,2.5 C 438.758,2.53007 455.091,8.03007 469.5,19C 481.154,29.3123 491.321,40.8123 500,53.5C 512.106,79.7671 510.439,105.1 495,129.5C 424.167,201.667 352.667,273.167 280.5,344C 273.008,348.745 265.008,352.412 256.5,355C 223.833,364.333 191.167,373.667 158.5,383C 140.062,385.727 129.396,377.894 126.5,359.5C 136.356,323.097 146.522,286.764 157,250.5C 159.197,243.773 162.197,237.439 166,231.5C 236.139,160.361 306.639,89.5274 377.5,19C 390.273,9.24522 404.607,3.74522 420.5,2.5 Z M 421.5,51.5 C 428.214,51.6904 434.214,53.857 439.5,58C 446.074,63.9037 451.908,70.4037 457,77.5C 460.592,86.8798 459.259,95.5465 453,103.5C 443.319,113.348 433.486,123.014 423.5,132.5C 408.167,117.833 393.167,102.833 378.5,87.5C 387.986,77.5141 397.652,67.6808 407.5,58C 411.892,54.9669 416.559,52.8002 421.5,51.5 Z M 342.5,122.5 C 358.081,136.579 373.248,151.245 388,166.5C 388.667,167.167 388.667,167.833 388,168.5C 343.5,213 299,257.5 254.5,302C 250.951,304.878 246.951,306.878 242.5,308C 224.465,313.067 206.465,318.234 188.5,323.5C 188.167,323 187.833,322.5 187.5,322C 192.536,305.225 197.369,288.392 202,271.5C 203.229,266.471 205.229,261.804 208,257.5C 253.035,212.632 297.868,167.632 342.5,122.5 Z"/></g>
<g><path style="opacity:0.992" fill="#000000" d="M 373.5,511.5 C 273.5,511.5 173.5,511.5 73.5,511.5C 33.1667,502.5 8.5,477.833 -0.5,437.5C -0.5,337.5 -0.5,237.5 -0.5,137.5C 8.32005,97.1803 32.9867,72.6803 73.5,64C 117.833,63.3333 162.167,63.3333 206.5,64C 220.482,69.4572 225.982,79.6239 223,94.5C 220.649,101.519 216.149,106.686 209.5,110C 165.869,111.034 122.203,112.034 78.5,113C 59.401,118.765 49.2343,131.598 48,151.5C 47.3333,242.167 47.3333,332.833 48,423.5C 50.5,447.333 63.6667,460.5 87.5,463C 178.167,463.667 268.833,463.667 359.5,463C 379.402,461.766 392.235,451.599 398,432.5C 399.283,389.857 399.949,347.19 400,304.5C 405.457,290.518 415.624,285.018 430.5,288C 438.667,290.833 444.167,296.333 447,304.5C 447.667,348.833 447.667,393.167 447,437.5C 438.32,478.013 413.82,502.68 373.5,511.5 Z"/></g>
</svg>
