<?xml version="1.0" encoding="UTF-8"?>
<!DOCTYPE svg PUBLIC "-//W3C//DTD SVG 1.1//EN" "http://www.w3.org/Graphics/SVG/1.1/DTD/svg11.dtd">
<svg xmlns="http://www.w3.org/2000/svg" version="1.1" width="512px" height="512px" style="shape-rendering:geometricPrecision; text-rendering:geometricPrecision; image-rendering:optimizeQuality; fill-rule:evenodd; clip-rule:evenodd" xmlns:xlink="http://www.w3.org/1999/xlink">
<g><path style="opacity:0.99" fill="#000000" d="M 511.5,130.5 C 511.5,213.833 511.5,297.167 511.5,380.5C 505.142,405.688 489.142,420.854 463.5,426C 324.833,426.667 186.167,426.667 47.5,426C 21.8576,420.854 5.85763,405.688 -0.5,380.5C -0.5,297.167 -0.5,213.833 -0.5,130.5C 5.85763,105.312 21.8576,90.1456 47.5,85C 186.167,84.3333 324.833,84.3333 463.5,85C 489.142,90.1456 505.142,105.312 511.5,130.5 Z M 56.5,142.5 C 75.1667,142.5 93.8333,142.5 112.5,142.5C 111.34,166.824 99.6729,183.991 77.5,194C 70.716,196.555 63.716,198.055 56.5,198.5C 56.5,179.833 56.5,161.167 56.5,142.5 Z M 398.5,142.5 C 417.167,142.5 435.833,142.5 454.5,142.5C 454.5,161.167 454.5,179.833 454.5,198.5C 426.571,196.461 408.404,182.128 400,155.5C 398.925,151.23 398.425,146.897 398.5,142.5 Z M 245.5,156.5 C 286.82,154.742 318.654,171.075 341,205.5C 361.471,245.106 358.471,282.772 332,318.5C 304.199,349.211 270.032,360.044 229.5,351C 187.645,337.479 163.478,308.979 157,265.5C 155.123,218.407 175.289,184.573 217.5,164C 226.716,160.532 236.049,158.032 245.5,156.5 Z M 56.5,312.5 C 84.4291,314.539 102.596,328.872 111,355.5C 112.075,359.77 112.575,364.103 112.5,368.5C 93.8333,368.5 75.1667,368.5 56.5,368.5C 56.5,349.833 56.5,331.167 56.5,312.5 Z M 451.5,312.5 C 452.5,312.5 453.5,312.5 454.5,312.5C 454.5,331.167 454.5,349.833 454.5,368.5C 435.833,368.5 417.167,368.5 398.5,368.5C 401.823,336.179 419.49,317.512 451.5,312.5 Z"/></g>
<g><path style="opacity:0.969" fill="#000000" d="M 237.5,194.5 C 244.841,194.334 252.174,194.5 259.5,195C 265.113,196.282 269.28,199.449 272,204.5C 273.469,227.101 273.969,249.767 273.5,272.5C 289.779,273.267 296.612,281.6 294,297.5C 291.341,303.492 286.841,307.325 280.5,309C 263.833,309.667 247.167,309.667 230.5,309C 216.533,303.568 212.699,294.068 219,280.5C 223.784,274.692 229.951,272.026 237.5,272.5C 237.5,258.5 237.5,244.5 237.5,230.5C 225.532,226.913 221.032,218.913 224,206.5C 226.866,200.457 231.366,196.457 237.5,194.5 Z"/></g>
</svg>
