<?xml version="1.0" encoding="UTF-8"?>
<!DOCTYPE svg PUBLIC "-//W3C//DTD SVG 1.1//EN" "http://www.w3.org/Graphics/SVG/1.1/DTD/svg11.dtd">
<svg xmlns="http://www.w3.org/2000/svg" version="1.1" width="512px" height="512px" style="shape-rendering:geometricPrecision; text-rendering:geometricPrecision; image-rendering:optimizeQuality; fill-rule:evenodd; clip-rule:evenodd" xmlns:xlink="http://www.w3.org/1999/xlink">
<g><path style="opacity:0.981" fill="#000000" d="M 511.5,130.5 C 511.5,213.833 511.5,297.167 511.5,380.5C 505.142,405.688 489.142,420.854 463.5,426C 324.833,426.667 186.167,426.667 47.5,426C 21.8576,420.854 5.85763,405.688 -0.5,380.5C -0.5,297.167 -0.5,213.833 -0.5,130.5C 5.85763,105.312 21.8576,90.1456 47.5,85C 186.167,84.3333 324.833,84.3333 463.5,85C 489.142,90.1456 505.142,105.312 511.5,130.5 Z M 99.5,128.5 C 203.5,128.5 307.5,128.5 411.5,128.5C 413.046,153.206 425.046,170.706 447.5,181C 454.253,183.65 461.253,184.817 468.5,184.5C 468.5,231.833 468.5,279.167 468.5,326.5C 439.966,327.866 421.466,342.199 413,369.5C 412.077,373.79 411.577,378.123 411.5,382.5C 307.5,382.5 203.5,382.5 99.5,382.5C 97.9198,357.769 85.9198,340.269 63.5,330C 56.7475,327.35 49.7475,326.183 42.5,326.5C 42.5,279.167 42.5,231.833 42.5,184.5C 71.0342,183.134 89.5342,168.801 98,141.5C 98.9225,137.21 99.4225,132.877 99.5,128.5 Z M 236.5,199.5 C 245.25,199.09 253.916,199.59 262.5,201C 264.709,202.873 266.542,205.04 268,207.5C 269.472,233.102 269.972,258.769 269.5,284.5C 280.884,282.51 287.884,287.01 290.5,298C 289.966,304.075 286.966,308.408 281.5,311C 264.167,311.667 246.833,311.667 229.5,311C 220.716,306.314 218.55,299.481 223,290.5C 227.962,285.048 234.129,283.048 241.5,284.5C 241.5,265.167 241.5,245.833 241.5,226.5C 229.275,224.048 225.442,217.048 230,205.5C 231.914,203.144 234.081,201.144 236.5,199.5 Z"/></g>
<g><path style="opacity:0.979" fill="#000000" d="M 244.5,155.5 C 286.616,153.141 319.116,169.474 342,204.5C 362.813,245.354 359.48,284.02 332,320.5C 303.674,350.94 269.174,361.44 228.5,352C 186.659,338.484 162.492,309.984 156,266.5C 153.145,223.373 169.978,190.54 206.5,168C 218.596,161.69 231.263,157.523 244.5,155.5 Z M 236.5,199.5 C 234.081,201.144 231.914,203.144 230,205.5C 225.442,217.048 229.275,224.048 241.5,226.5C 241.5,245.833 241.5,265.167 241.5,284.5C 234.129,283.048 227.962,285.048 223,290.5C 218.55,299.481 220.716,306.314 229.5,311C 246.833,311.667 264.167,311.667 281.5,311C 286.966,308.408 289.966,304.075 290.5,298C 287.884,287.01 280.884,282.51 269.5,284.5C 269.972,258.769 269.472,233.102 268,207.5C 266.542,205.04 264.709,202.873 262.5,201C 253.916,199.59 245.25,199.09 236.5,199.5 Z"/></g>
</svg>
