<?xml version="1.0" encoding="UTF-8"?>
<!DOCTYPE svg PUBLIC "-//W3C//DTD SVG 1.1//EN" "http://www.w3.org/Graphics/SVG/1.1/DTD/svg11.dtd">
<svg xmlns="http://www.w3.org/2000/svg" version="1.1" width="512px" height="512px" style="shape-rendering:geometricPrecision; text-rendering:geometricPrecision; image-rendering:optimizeQuality; fill-rule:evenodd; clip-rule:evenodd" xmlns:xlink="http://www.w3.org/1999/xlink">
<g><path style="opacity:0.996" fill="#202020" d="M 65.5,31.5 C 176.167,31.3333 286.834,31.5 397.5,32C 402,33.8333 405.167,37 407,41.5C 407.5,160.833 407.667,280.166 407.5,399.5C 422.837,399.333 438.17,399.5 453.5,400C 461.4,403.631 464.734,409.797 463.5,418.5C 460.724,451.114 443.39,471.28 411.5,479C 314.167,479.667 216.833,479.667 119.5,479C 84.6859,469.876 63.5192,447.71 56,412.5C 55.3333,288.833 55.3333,165.167 56,41.5C 58.0223,36.98 61.189,33.6467 65.5,31.5 Z M 87.5,63.5 C 183.5,63.5 279.5,63.5 375.5,63.5C 375.5,175.5 375.5,287.5 375.5,399.5C 314.832,399.333 254.166,399.5 193.5,400C 190.438,401.061 187.938,402.894 186,405.5C 183.543,413.872 180.876,422.205 178,430.5C 174.601,436.568 170.435,442.068 165.5,447C 151.07,448.041 136.736,447.375 122.5,445C 100.778,437.608 89.2781,422.442 88,399.5C 87.5,287.5 87.3333,175.5 87.5,63.5 Z"/></g>
<g><path style="opacity:0.995" fill="#202020" d="M 131.5,159.5 C 198.167,159.333 264.834,159.5 331.5,160C 334.516,161.529 335.849,164.029 335.5,167.5C 335.849,170.971 334.516,173.471 331.5,175C 264.833,175.667 198.167,175.667 131.5,175C 128.484,173.471 127.151,170.971 127.5,167.5C 127.282,163.934 128.616,161.268 131.5,159.5 Z"/></g>
<g><path style="opacity:0.995" fill="#202020" d="M 131.5,207.5 C 198.167,207.333 264.834,207.5 331.5,208C 334.516,209.529 335.849,212.029 335.5,215.5C 335.849,218.971 334.516,221.471 331.5,223C 264.833,223.667 198.167,223.667 131.5,223C 128.484,221.471 127.151,218.971 127.5,215.5C 127.282,211.934 128.616,209.268 131.5,207.5 Z"/></g>
<g><path style="opacity:0.995" fill="#202020" d="M 131.5,255.5 C 198.167,255.333 264.834,255.5 331.5,256C 334.516,257.529 335.849,260.029 335.5,263.5C 335.849,266.971 334.516,269.471 331.5,271C 264.833,271.667 198.167,271.667 131.5,271C 128.484,269.471 127.151,266.971 127.5,263.5C 127.282,259.934 128.616,257.268 131.5,255.5 Z"/></g>
<g><path style="opacity:0.991" fill="#202020" d="M 131.5,303.5 C 171.501,303.333 211.501,303.5 251.5,304C 254.516,305.529 255.849,308.029 255.5,311.5C 255.849,314.971 254.516,317.471 251.5,319C 211.5,319.667 171.5,319.667 131.5,319C 128.484,317.471 127.151,314.971 127.5,311.5C 127.282,307.934 128.616,305.268 131.5,303.5 Z"/></g>
</svg>
