<?xml version="1.0" encoding="UTF-8"?>
<!DOCTYPE svg PUBLIC "-//W3C//DTD SVG 1.1//EN" "http://www.w3.org/Graphics/SVG/1.1/DTD/svg11.dtd">
<svg xmlns="http://www.w3.org/2000/svg" version="1.1" width="512px" height="512px" style="shape-rendering:geometricPrecision; text-rendering:geometricPrecision; image-rendering:optimizeQuality; fill-rule:evenodd; clip-rule:evenodd" xmlns:xlink="http://www.w3.org/1999/xlink">
<g><path style="opacity:0.994" fill="#202020" d="M 101.5,15.5 C 176.501,15.3333 251.501,15.5 326.5,16C 327.833,16.6667 329.167,17.3333 330.5,18C 368.667,56.1667 406.833,94.3333 445,132.5C 445.667,133.833 446.333,135.167 447,136.5C 447.667,243.5 447.667,350.5 447,457.5C 441.833,477.333 429.333,489.833 409.5,495C 306.833,495.667 204.167,495.667 101.5,495C 81.6667,489.833 69.1667,477.333 64,457.5C 63.3333,322.833 63.3333,188.167 64,53.5C 69.3488,33.6518 81.8488,20.9852 101.5,15.5 Z M 111.5,47.5 C 178.834,47.3333 246.167,47.5 313.5,48C 315.333,49.8333 317.167,51.6667 319,53.5C 319.333,80.1667 319.667,106.833 320,133.5C 321.833,138 325,141.167 329.5,143C 356.167,143.333 382.833,143.667 409.5,144C 411.333,145.833 413.167,147.667 415,149.5C 415.667,248.833 415.667,348.167 415,447.5C 413.833,456.667 408.667,461.833 399.5,463C 303.5,463.667 207.5,463.667 111.5,463C 102.333,461.833 97.1667,456.667 96,447.5C 95.3333,319.5 95.3333,191.5 96,63.5C 97.3459,54.3224 102.513,48.9891 111.5,47.5 Z"/></g>
<g><path style="opacity:0.994" fill="#202020" d="M 147.5,191.5 C 219.501,191.333 291.501,191.5 363.5,192C 366.516,193.529 367.849,196.029 367.5,199.5C 367.849,202.971 366.516,205.471 363.5,207C 291.5,207.667 219.5,207.667 147.5,207C 144.484,205.471 143.151,202.971 143.5,199.5C 143.282,195.934 144.616,193.268 147.5,191.5 Z"/></g>
<g><path style="opacity:0.994" fill="#202020" d="M 147.5,239.5 C 219.501,239.333 291.501,239.5 363.5,240C 366.516,241.529 367.849,244.029 367.5,247.5C 367.849,250.971 366.516,253.471 363.5,255C 291.5,255.667 219.5,255.667 147.5,255C 144.484,253.471 143.151,250.971 143.5,247.5C 143.282,243.934 144.616,241.268 147.5,239.5 Z"/></g>
<g><path style="opacity:0.994" fill="#202020" d="M 147.5,287.5 C 219.501,287.333 291.501,287.5 363.5,288C 366.516,289.529 367.849,292.029 367.5,295.5C 367.849,298.971 366.516,301.471 363.5,303C 291.5,303.667 219.5,303.667 147.5,303C 144.484,301.471 143.151,298.971 143.5,295.5C 143.282,291.934 144.616,289.268 147.5,287.5 Z"/></g>
<g><path style="opacity:0.991" fill="#202020" d="M 147.5,335.5 C 192.835,335.333 238.168,335.5 283.5,336C 286.516,337.529 287.849,340.029 287.5,343.5C 287.849,346.971 286.516,349.471 283.5,351C 238.167,351.667 192.833,351.667 147.5,351C 144.484,349.471 143.151,346.971 143.5,343.5C 143.282,339.934 144.616,337.268 147.5,335.5 Z"/></g>
</svg>
