<?xml version="1.0" encoding="UTF-8"?>
<!DOCTYPE svg PUBLIC "-//W3C//DTD SVG 1.1//EN" "http://www.w3.org/Graphics/SVG/1.1/DTD/svg11.dtd">
<svg xmlns="http://www.w3.org/2000/svg" version="1.1" width="256px" height="256px" style="shape-rendering:geometricPrecision; text-rendering:geometricPrecision; image-rendering:optimizeQuality; fill-rule:evenodd; clip-rule:evenodd" xmlns:xlink="http://www.w3.org/1999/xlink">
<g><path style="opacity:0.989" fill="#292929" d="M 234.5,221.5 C 233.354,223.475 231.687,224.975 229.5,226C 161.167,226.667 92.8333,226.667 24.5,226C 22.9297,224.603 21.5964,223.103 20.5,221.5C 20.0881,172.129 42.0881,136.963 86.5,116C 90.3634,114.268 94.3634,112.934 98.5,112C 76.5462,98.2504 67.3796,78.4171 71,52.5C 78.3908,23.4455 97.0575,7.77879 127,5.5C 161.941,8.60784 181.108,27.6078 184.5,62.5C 184.086,84.1714 174.753,100.671 156.5,112C 194.658,123.491 219.491,148.325 231,186.5C 233.991,197.976 235.158,209.643 234.5,221.5 Z"/></g>
<g><path style="opacity:0.968" fill="#000000" d="M 20.5,221.5 C 21.5964,223.103 22.9297,224.603 24.5,226C 92.8333,226.667 161.167,226.667 229.5,226C 231.687,224.975 233.354,223.475 234.5,221.5C 234.665,224.518 234.498,227.518 234,230.5C 233.167,231.333 232.333,232.167 231.5,233C 162.167,233.667 92.8333,233.667 23.5,233C 22.3333,232.5 21.5,231.667 21,230.5C 20.502,227.518 20.3354,224.518 20.5,221.5 Z"/></g>
</svg>
